<?xml version="1.0" standalone="no"?>
<!DOCTYPE svg PUBLIC "-//W3C//DTD SVG 20010904//EN"
 "http://www.w3.org/TR/2001/REC-SVG-20010904/DTD/svg10.dtd">
<svg version="1.0" xmlns="http://www.w3.org/2000/svg"
 width="260.000000pt" height="260.000000pt" viewBox="0 0 260.000000 260.000000"
 preserveAspectRatio="xMidYMid meet">
<metadata>
Created by potrace 1.11, written by Peter Selinger 2001-2013
</metadata>
<g transform="translate(0.000000,260.000000) scale(0.100000,-0.100000)"
fill="#000000" stroke="none">
<path d="M0 1300 l0 -1300 1300 0 1300 0 0 1300 0 1300 -1300 0 -1300 0 0
-1300z m2197 470 c68 -22 73 -23 91 -7 10 9 22 17 25 17 4 0 7 -61 7 -135 0
-74 -4 -135 -8 -135 -4 0 -16 25 -27 56 -98 289 -406 279 -510 -16 -63 -178
-26 -401 82 -501 62 -57 104 -73 198 -73 68 -1 88 3 138 27 61 30 100 81 113
145 10 51 28 53 20 3 -20 -129 -121 -209 -273 -219 -176 -11 -327 60 -396 186
-56 103 -71 236 -42 361 60 254 311 379 582 291z m-1497 -16 c48 -22 95 -70
112 -113 13 -35 12 -113 -2 -155 -13 -41 -78 -103 -117 -112 -43 -10 -45 -14
-20 -34 13 -10 53 -78 89 -152 86 -173 119 -218 158 -218 43 0 80 37 91 90 11
60 11 564 -1 614 -11 48 -38 77 -88 93 -31 10 6 12 213 10 230 -2 254 -4 295
-23 48 -22 95 -70 112 -113 13 -35 12 -113 -2 -155 -13 -41 -78 -103 -117
-112 -43 -10 -45 -14 -20 -35 14 -10 50 -70 80 -133 76 -158 120 -223 159
-240 32 -14 28 -14 -69 -15 l-102 -1 -74 153 c-83 172 -129 231 -190 242 -64
12 -67 7 -67 -102 0 -126 14 -220 36 -244 10 -11 38 -26 63 -34 42 -12 24 -14
-226 -14 l-272 -1 -74 153 c-83 172 -129 231 -190 242 -64 12 -67 7 -67 -102
0 -126 14 -220 36 -244 10 -11 38 -26 63 -34 43 -13 33 -14 -154 -14 -199 0
-200 0 -156 17 85 33 86 36 89 340 5 394 -2 429 -94 458 -33 11 -1 13 211 11
230 -2 254 -4 295 -23z m1759 -674 c10 -5 24 -22 30 -39 10 -24 10 -34 -3 -59
-25 -48 -74 -57 -113 -20 -62 58 11 158 86 118z"/>
<path d="M417 1753 c-4 -3 -7 -93 -7 -200 l0 -193 48 0 c102 0 167 37 203 115
51 110 -10 249 -121 274 -52 12 -114 14 -123 4z"/>
<path d="M1147 1753 c-4 -3 -7 -93 -7 -200 l0 -193 48 0 c102 0 167 37 203
115 51 110 -10 249 -121 274 -52 12 -114 14 -123 4z"/>
</g>
</svg>
